<svg id="visual" viewBox="0 0 960 540" width="960" height="540" xmlns="http://www.w3.org/2000/svg" xmlns:xlink="http://www.w3.org/1999/xlink" version="1.1"><rect x="0" y="0" width="960" height="540" fill="#eee"></rect><path d="M0 331L22.8 335C45.7 339 91.3 347 137 349.5C182.7 352 228.3 349 274 355.7C319.7 362.3 365.3 378.7 411.2 375.7C457 372.7 503 350.3 548.8 349.2C594.7 348 640.3 368 686 373.3C731.7 378.7 777.3 369.3 823 359.8C868.7 350.3 914.3 340.7 937.2 335.8L960 331L960 541L937.2 541C914.3 541 868.7 541 823 541C777.3 541 731.7 541 686 541C640.3 541 594.7 541 548.8 541C503 541 457 541 411.2 541C365.3 541 319.7 541 274 541C228.3 541 182.7 541 137 541C91.3 541 45.7 541 22.8 541L0 541Z" fill="#c62368"></path><path d="M0 356L22.8 359.5C45.7 363 91.3 370 137 373.5C182.7 377 228.3 377 274 384C319.7 391 365.3 405 411.2 408C457 411 503 403 548.8 395.7C594.7 388.3 640.3 381.7 686 375.2C731.7 368.7 777.3 362.3 823 368.5C868.7 374.7 914.3 393.3 937.2 402.7L960 412L960 541L937.2 541C914.3 541 868.7 541 823 541C777.3 541 731.7 541 686 541C640.3 541 594.7 541 548.8 541C503 541 457 541 411.2 541C365.3 541 319.7 541 274 541C228.3 541 182.7 541 137 541C91.3 541 45.7 541 22.8 541L0 541Z" fill="#d4165b"></path><path d="M0 417L22.8 417.5C45.7 418 91.3 419 137 421.5C182.7 424 228.3 428 274 433C319.7 438 365.3 444 411.2 445.3C457 446.7 503 443.3 548.8 435.5C594.7 427.7 640.3 415.3 686 414.5C731.7 413.7 777.3 424.3 823 426.2C868.7 428 914.3 421 937.2 417.5L960 414L960 541L937.2 541C914.3 541 868.7 541 823 541C777.3 541 731.7 541 686 541C640.3 541 594.7 541 548.8 541C503 541 457 541 411.2 541C365.3 541 319.7 541 274 541C228.3 541 182.7 541 137 541C91.3 541 45.7 541 22.8 541L0 541Z" fill="#df0a4c"></path><path d="M0 471L22.8 471.5C45.7 472 91.3 473 137 470.2C182.7 467.3 228.3 460.7 274 462C319.7 463.3 365.3 472.7 411.2 476C457 479.3 503 476.7 548.8 473.8C594.7 471 640.3 468 686 466C731.7 464 777.3 463 823 464C868.7 465 914.3 468 937.2 469.5L960 471L960 541L937.2 541C914.3 541 868.7 541 823 541C777.3 541 731.7 541 686 541C640.3 541 594.7 541 548.8 541C503 541 457 541 411.2 541C365.3 541 319.7 541 274 541C228.3 541 182.7 541 137 541C91.3 541 45.7 541 22.8 541L0 541Z" fill="#e80c3a"></path><path d="M0 513L22.8 510.7C45.7 508.3 91.3 503.7 137 503.8C182.7 504 228.3 509 274 508.3C319.7 507.7 365.3 501.3 411.2 501C457 500.7 503 506.3 548.8 507.2C594.7 508 640.3 504 686 502.3C731.7 500.7 777.3 501.3 823 497.5C868.7 493.7 914.3 485.3 937.2 481.2L960 477L960 541L937.2 541C914.3 541 868.7 541 823 541C777.3 541 731.7 541 686 541C640.3 541 594.7 541 548.8 541C503 541 457 541 411.2 541C365.3 541 319.7 541 274 541C228.3 541 182.7 541 137 541C91.3 541 45.7 541 22.8 541L0 541Z" fill="#ed1c24"></path></svg>